<svg width="900" height="1300" viewBox="0 0 900 1300" xmlns="http://www.w3.org/2000/svg" xmlns:xlink="http://www.w3.org/1999/xlink" overflow="hidden"><rect x="0" y="0" width="900" height="1300" fill="#FFFFFF"/><text fill="#1F1F1F" font-family="Times New Roman,Liberation Serif,DejaVu Serif,Times New Roman" font-weight="700" font-size="32" text-anchor="middle" x="450" y="60">Quy trình cá nhân hóa nội dung</text><g transform="translate(40 100)"><rect x="0" y="0" rx="22" ry="22" width="820" height="120" stroke="#111111" stroke-width="5" fill="#FFFFFF"/><text fill="#1F1F1F" font-family="Times New Roman,Liberation Serif,DejaVu Serif,Times New Roman" font-weight="700" font-size="20" text-anchor="middle" x="410" y="50"><tspan x="410" dy="0">Hệ thống thu thập dữ liệu hành vi</tspan> <tspan x="410" dy="30">người dùng</tspan></text></g><g stroke="#C7D8FF" stroke-width="8" stroke-linecap="round" fill="#C7D8FF" transform="translate(450 235)"><line x1="0" y1="0" x2="0" y2="28"/><path d="M-10 28 10 28 0 42Z"/></g><g transform="translate(40 290)"><rect x="0" y="0" rx="22" ry="22" width="820" height="120" stroke="#111111" stroke-width="5" fill="#FFFFFF"/><text fill="#1F1F1F" font-family="Times New Roman,Liberation Serif,DejaVu Serif,Times New Roman" font-weight="700" font-size="20" text-anchor="middle" x="410" y="50"><tspan x="410" dy="0">Dữ liệu được lưu trữ và xử lý</tspan> <tspan x="410" dy="30">trong hệ thống</tspan></text></g><g stroke="#C7D8FF" stroke-width="8" stroke-linecap="round" fill="#C7D8FF" transform="translate(450 425)"><line x1="0" y1="0" x2="0" y2="28"/><path d="M-10 28 10 28 0 42Z"/></g><g transform="translate(40 480)"><rect x="0" y="0" rx="22" ry="22" width="820" height="120" stroke="#111111" stroke-width="5" fill="#FFFFFF"/><text fill="#1F1F1F" font-family="Times New Roman,Liberation Serif,DejaVu Serif,Times New Roman" font-weight="700" font-size="20" text-anchor="middle" x="410" y="50"><tspan x="410" dy="0">Hệ thống phân tích hành vi</tspan> <tspan x="410" dy="30">người dùng</tspan></text></g><g stroke="#C7D8FF" stroke-width="8" stroke-linecap="round" fill="#C7D8FF" transform="translate(450 615)"><line x1="0" y1="0" x2="0" y2="28"/><path d="M-10 28 10 28 0 42Z"/></g><g transform="translate(40 670)"><rect x="0" y="0" rx="22" ry="22" width="820" height="120" stroke="#111111" stroke-width="5" fill="#FFFFFF"/><text fill="#1F1F1F" font-family="Times New Roman,Liberation Serif,DejaVu Serif,Times New Roman" font-weight="700" font-size="20" text-anchor="middle" x="410" y="50"><tspan x="410" dy="0">Hệ thống đưa ra các gợi ý</tspan> <tspan x="410" dy="30">bài hát phù hợp</tspan></text></g><g stroke="#C7D8FF" stroke-width="8" stroke-linecap="round" fill="#C7D8FF" transform="translate(450 805)"><line x1="0" y1="0" x2="0" y2="28"/><path d="M-10 28 10 28 0 42Z"/></g><g transform="translate(40 860)"><rect x="0" y="0" rx="22" ry="22" width="820" height="120" stroke="#111111" stroke-width="5" fill="#FFFFFF"/><text fill="#1F1F1F" font-family="Times New Roman,Liberation Serif,DejaVu Serif,Times New Roman" font-weight="700" font-size="20" text-anchor="middle" x="410" y="50"><tspan x="410" dy="0">Hiển thị recap và music persona</tspan> <tspan x="410" dy="30">cho người dùng</tspan></text></g></svg>