<svg width="900" height="1500" viewBox="0 0 900 1500" xmlns="http://www.w3.org/2000/svg" xmlns:xlink="http://www.w3.org/1999/xlink" overflow="hidden"><rect x="0" y="0" width="900" height="1500" fill="#FFFFFF"/><text fill="#1F1F1F" font-family="Times New Roman,Liberation Serif,DejaVu Serif,Times New Roman" font-weight="700" font-size="32" text-anchor="middle" x="450" y="60">Quy trình tra cứu và xem thông tin bài hát</text><g transform="translate(40 100)"><rect x="0" y="0" rx="22" ry="22" width="820" height="120" stroke="#111111" stroke-width="5" fill="#FFFFFF"/><text fill="#1F1F1F" font-family="Times New Roman,Liberation Serif,DejaVu Serif,Times New Roman" font-weight="700" font-size="20" text-anchor="middle" x="410" y="50"><tspan x="410" dy="0">Người dùng hoặc khách truy cập</tspan> <tspan x="410" dy="30">truy cập vào hệ thống</tspan></text></g><g stroke="#C7D8FF" stroke-width="8" stroke-linecap="round" fill="#C7D8FF" transform="translate(450 235)"><line x1="0" y1="0" x2="0" y2="28"/><path d="M-10 28 10 28 0 42Z"/></g><g transform="translate(40 290)"><rect x="0" y="0" rx="22" ry="22" width="820" height="120" stroke="#111111" stroke-width="5" fill="#FFFFFF"/><text fill="#1F1F1F" font-family="Times New Roman,Liberation Serif,DejaVu Serif,Times New Roman" font-weight="700" font-size="20" text-anchor="middle" x="410" y="50"><tspan x="410" dy="0">Nhập từ khóa tìm kiếm</tspan> <tspan x="410" dy="30">(tên bài hát hoặc nghệ sĩ)</tspan></text></g><g stroke="#C7D8FF" stroke-width="8" stroke-linecap="round" fill="#C7D8FF" transform="translate(450 425)"><line x1="0" y1="0" x2="0" y2="28"/><path d="M-10 28 10 28 0 42Z"/></g><g transform="translate(40 480)"><rect x="0" y="0" rx="22" ry="22" width="820" height="120" stroke="#111111" stroke-width="5" fill="#FFFFFF"/><text fill="#1F1F1F" font-family="Times New Roman,Liberation Serif,DejaVu Serif,Times New Roman" font-weight="700" font-size="20" text-anchor="middle" x="410" y="50"><tspan x="410" dy="0">Hệ thống tiếp nhận yêu cầu và</tspan> <tspan x="410" dy="30">truy vấn dữ liệu từ cơ sở dữ liệu</tspan></text></g><g stroke="#C7D8FF" stroke-width="8" stroke-linecap="round" fill="#C7D8FF" transform="translate(450 615)"><line x1="0" y1="0" x2="0" y2="28"/><path d="M-10 28 10 28 0 42Z"/></g><g transform="translate(40 670)"><rect x="0" y="0" rx="22" ry="22" width="820" height="120" stroke="#111111" stroke-width="5" fill="#FFFFFF"/><text fill="#1F1F1F" font-family="Times New Roman,Liberation Serif,DejaVu Serif,Times New Roman" font-weight="700" font-size="20" text-anchor="middle" x="410" y="50"><tspan x="410" dy="0">Hệ thống hiển thị danh sách</tspan> <tspan x="410" dy="30">kết quả phù hợp</tspan></text></g><g stroke="#C7D8FF" stroke-width="8" stroke-linecap="round" fill="#C7D8FF" transform="translate(450 805)"><line x1="0" y1="0" x2="0" y2="28"/><path d="M-10 28 10 28 0 42Z"/></g><g transform="translate(40 860)"><rect x="0" y="0" rx="22" ry="22" width="820" height="120" stroke="#111111" stroke-width="5" fill="#FFFFFF"/><text fill="#1F1F1F" font-family="Times New Roman,Liberation Serif,DejaVu Serif,Times New Roman" font-weight="700" font-size="20" text-anchor="middle" x="410" y="50"><tspan x="410" dy="0">Người dùng lựa chọn một bài hát</tspan> <tspan x="410" dy="30">từ danh sách kết quả</tspan></text></g><g stroke="#C7D8FF" stroke-width="8" stroke-linecap="round" fill="#C7D8FF" transform="translate(450 995)"><line x1="0" y1="0" x2="0" y2="28"/><path d="M-10 28 10 28 0 42Z"/></g><g transform="translate(40 1050)"><rect x="0" y="0" rx="22" ry="22" width="820" height="120" stroke="#111111" stroke-width="5" fill="#FFFFFF"/><text fill="#1F1F1F" font-family="Times New Roman,Liberation Serif,DejaVu Serif,Times New Roman" font-weight="700" font-size="20" text-anchor="middle" x="410" y="38"><tspan x="410" dy="0">Hệ thống hiển thị chi tiết bài hát:</tspan> <tspan x="410" dy="28">lời bài hát, ý nghĩa</tspan> <tspan x="410" dy="28">và video (nếu có)</tspan></text></g><g stroke="#C7D8FF" stroke-width="8" stroke-linecap="round" fill="#C7D8FF" transform="translate(450 1185)"><line x1="0" y1="0" x2="0" y2="28"/><path d="M-10 28 10 28 0 42Z"/></g><g transform="translate(40 1240)"><rect x="0" y="0" rx="22" ry="22" width="820" height="120" stroke="#111111" stroke-width="5" fill="#FFFFFF"/><text fill="#1F1F1F" font-family="Times New Roman,Liberation Serif,DejaVu Serif,Times New Roman" font-weight="700" font-size="20" text-anchor="middle" x="410" y="50"><tspan x="410" dy="0">Người dùng có thể xem thêm</tspan> <tspan x="410" dy="30">các bài hát liên quan (tùy chọn)</tspan></text></g></svg>